<?xml version="1.0" standalone="no"?>
<!DOCTYPE svg PUBLIC "-//W3C//DTD SVG 20010904//EN"
 "http://www.w3.org/TR/2001/REC-SVG-20010904/DTD/svg10.dtd">
<svg version="1.0" xmlns="http://www.w3.org/2000/svg"
 width="571.000000pt" height="297.000000pt" viewBox="0 0 571.000000 297.000000"
 preserveAspectRatio="xMidYMid meet">

<g transform="translate(0.000000,297.000000) scale(0.100000,-0.100000)"
fill="#000000" stroke="none">
<path d="M1920 1457 c0 -145 3 -206 12 -215 7 -7 29 -12 50 -12 l38 0 2 73 2
72 6 -80 6 -80 2 108 c2 85 5 109 17 113 8 4 12 11 9 16 -4 6 -1 9 7 6 20 -7
30 -55 27 -135 -2 -44 2 -77 9 -84 6 -6 30 -10 52 -7 23 2 41 0 41 -4 0 -4
-23 -9 -50 -11 l-50 -4 52 1 53 1 2 130 c1 81 -1 123 -7 110 -8 -19 -9 -19 -9
3 -1 13 -14 37 -30 53 -26 25 -37 29 -88 30 -32 0 -52 3 -45 6 8 3 12 24 11
61 -2 55 -2 56 -9 17 l-7 -40 -2 38 -1 37 -50 0 -50 0 0 -203z m107 -59 c-3
-7 -5 -2 -5 12 0 14 2 19 5 13 2 -7 2 -19 0 -25z"/>
<path d="M3282 1448 l3 -213 54 0 53 0 0 85 c-1 100 3 120 26 120 15 0 15 2 2
11 -12 8 -11 10 5 7 18 -3 20 -13 25 -113 l5 -110 48 -3 c40 -3 47 0 48 15 0
16 1 16 9 -2 11 -25 11 167 0 210 -4 17 -8 26 -9 20 -1 -5 -10 5 -21 22 -22
36 -51 47 -110 41 -33 -3 -39 -1 -34 12 10 24 4 94 -9 102 -7 4 -31 8 -55 8
l-42 0 2 -212z m275 -50 c-3 -8 -6 -5 -6 6 -1 11 2 17 5 13 3 -3 4 -12 1 -19z"/>
<path d="M3595 1634 c-32 -33 7 -87 60 -82 39 3 55 15 55 42 0 17 -2 18 -10 6
-8 -13 -10 -13 -10 2 0 42 -63 63 -95 32z"/>
<path d="M912 1598 l3 -43 52 -3 52 -3 3 -157 3 -157 53 0 c68 0 68 -13 0 -18
l-53 -4 55 1 55 1 3 158 3 157 42 2 42 1 -45 7 -45 7 53 1 52 2 0 45 0 45
-166 0 -165 0 3 -42z"/>
<path d="M1253 1600 c0 -25 2 -35 4 -22 2 12 2 32 0 45 -2 12 -4 2 -4 -23z"/>
<path d="M2239 1633 c-4 -22 -5 -370 -1 -385 3 -14 16 -18 56 -20 l51 -1 -50
-7 -50 -7 47 -1 c56 -2 65 9 63 83 -3 86 -5 96 -15 90 -6 -4 -10 12 -9 42 0
47 2 44 42 -72 l42 -120 40 -6 40 -5 -40 -6 -40 -5 40 1 c47 1 57 16 81 123
29 130 31 131 30 13 l-1 -115 48 -3 47 -3 -2 203 -3 203 -59 0 -58 0 -39 -110
c-22 -60 -42 -117 -45 -125 -5 -11 -8 -9 -15 9 -6 14 -7 31 -4 38 3 9 0 11 -7
7 -7 -5 -9 0 -6 14 4 12 2 20 -2 17 -12 -7 -23 32 -14 46 5 8 3 9 -6 4 -10 -6
-11 -1 -6 21 5 23 4 26 -5 14 -9 -12 -10 -11 -6 8 3 14 1 20 -6 15 -6 -4 -8 2
-5 15 4 12 2 20 -2 17 -5 -3 -11 -1 -15 5 -7 11 -114 14 -116 3z"/>
<path d="M2672 1433 l-2 -212 -52 -4 -53 -3 53 -2 c35 -1 54 2 58 11 2 7 3
105 1 217 l-2 205 -3 -212z"/>
<path d="M1760 1576 c0 -40 -1 -40 -97 -36 l-53 2 0 -104 c0 -109 -7 -128 -44
-128 -20 0 -21 5 -18 113 l4 114 -56 2 -56 2 0 -125 c0 -119 1 -126 26 -155
14 -17 32 -31 40 -31 9 0 12 -4 9 -10 -4 -6 13 -10 44 -10 36 0 49 3 46 13 -4
9 10 12 55 10 l60 -2 0 98 c0 62 4 101 12 109 9 9 8 12 -5 12 -10 0 -17 7 -16
18 0 10 3 12 6 5 2 -7 13 -13 24 -13 17 0 19 -8 19 -90 0 -83 2 -93 25 -115
13 -14 29 -25 35 -25 6 0 8 -4 5 -10 -4 -6 12 -10 40 -10 l46 0 -3 48 c-3 41
-6 47 -26 50 -16 3 -22 8 -18 19 3 8 6 35 6 59 0 37 4 46 23 54 22 9 22 9 -3
10 -25 1 -25 1 -2 10 33 14 28 80 -7 80 -13 0 -16 7 -13 33 l4 34 -56 2 -56 2
0 -35z"/>
<path d="M933 1533 c15 -2 39 -2 55 0 15 2 2 4 -28 4 -30 0 -43 -2 -27 -4z"/>
<path d="M1242 1387 l3 -152 48 -3 47 -3 2 98 2 98 6 -105 6 -105 2 103 c2 88
4 103 20 108 41 13 47 21 47 65 l0 44 -93 2 -93 3 3 -153z"/>
<path d="M2733 1505 c-45 -45 -41 -68 12 -75 l40 -5 -33 -14 c-40 -17 -52 -37
-52 -89 0 -33 6 -45 31 -66 17 -14 35 -26 40 -26 6 0 7 -4 4 -10 -4 -6 12 -10
39 -10 32 0 46 4 46 13 0 10 13 13 53 9 l52 -4 0 125 c0 69 -1 124 -3 122 -1
-1 -18 13 -36 31 -31 31 -39 34 -96 34 -57 0 -65 -3 -97 -35z m127 -60 c0 -10
-10 -15 -30 -15 -16 0 -30 4 -30 10 0 5 6 7 14 4 8 -3 17 -1 21 5 9 16 25 13
25 -4z m-2 -107 c-2 -17 -11 -24 -33 -26 l-30 -3 25 25 c31 31 42 32 38 4z"/>
<path d="M3036 1510 c-40 -36 -58 -96 -46 -161 9 -50 35 -86 78 -109 21 -11
28 -20 20 -23 -7 -3 9 -6 35 -6 91 -2 141 36 135 102 -3 30 -5 32 -49 35 -40
3 -47 0 -52 -18 -9 -36 -67 -22 -67 16 0 3 4 3 8 0 4 -2 6 10 4 29 -3 24 2 39
16 53 14 14 17 22 9 26 -7 2 -4 5 6 5 10 1 22 -10 27 -24 8 -22 16 -25 55 -25
51 0 55 10 30 64 -21 44 -63 66 -124 66 -42 0 -56 -5 -85 -30z"/>
<path d="M3592 1388 l3 -153 50 -6 50 -5 -50 -5 -50 -5 48 -2 c43 -2 48 0 58
26 7 17 9 77 5 162 -2 74 -5 135 -5 136 -1 0 -26 2 -56 3 l-56 2 3 -153z"/>
<path d="M3732 1386 l3 -151 48 0 c60 0 62 -13 2 -18 l-45 -4 47 1 48 1 2 90
c4 112 9 135 31 135 15 0 15 2 2 10 -8 5 -10 10 -4 10 25 0 33 -30 36 -126 l3
-99 50 -6 50 -5 -50 -6 -50 -5 50 1 50 1 0 127 c0 70 -3 121 -7 115 -5 -8 -8
-4 -8 9 0 12 -11 33 -24 47 -23 25 -28 26 -130 25 l-107 0 3 -152z"/>
<path d="M4087 1522 c-42 -26 -70 -93 -65 -153 6 -61 31 -97 86 -126 24 -12
37 -23 30 -26 -7 -3 12 -6 42 -6 44 -1 63 4 93 24 20 14 37 30 37 35 0 5 -13
23 -30 41 -16 18 -27 35 -24 38 3 3 9 -1 13 -8 5 -7 17 -11 27 -9 15 2 19 13
21 53 2 38 0 45 -7 30 -9 -17 -10 -15 -7 12 2 18 0 30 -4 27 -4 -2 -10 5 -14
15 -3 11 -20 32 -36 46 -37 31 -118 35 -162 7z m111 -85 c3 -13 -4 -17 -32
-17 -20 0 -36 5 -36 10 0 6 12 10 26 10 16 0 23 4 18 11 -4 7 -1 10 7 7 8 -3
15 -12 17 -21z m112 -72 c0 -17 -5 -25 -17 -24 -11 0 -13 3 -5 6 6 2 12 13 12
24 0 10 2 19 5 19 3 0 5 -11 5 -25z m-160 -25 c0 -5 15 -10 33 -9 27 0 29 2
12 9 -17 7 -15 9 13 9 36 1 40 -6 15 -25 -22 -17 -65 -18 -81 -2 -15 15 -16
28 -2 28 6 0 10 -4 10 -10z"/>
<path d="M3193 1393 c15 -2 37 -2 50 0 12 2 0 4 -28 4 -27 0 -38 -2 -22 -4z"/>
<path d="M2972 1300 c0 -19 2 -27 5 -17 2 9 2 25 0 35 -3 9 -5 1 -5 -18z"/>
<path d="M2980 1237 c0 -12 -12 -17 -52 -20 l-53 -3 53 -2 c39 -2 54 2 59 13
3 9 3 19 -1 22 -3 4 -6 -1 -6 -10z"/>
<path d="M1273 1213 c15 -2 37 -2 50 0 12 2 0 4 -28 4 -27 0 -38 -2 -22 -4z"/>
<path d="M1643 1213 c15 -2 37 -2 50 0 12 2 0 4 -28 4 -27 0 -38 -2 -22 -4z"/>
<path d="M1958 1213 c12 -2 32 -2 45 0 12 2 2 4 -23 4 -25 0 -35 -2 -22 -4z"/>
<path d="M3313 1213 c15 -2 37 -2 50 0 12 2 0 4 -28 4 -27 0 -38 -2 -22 -4z"/>
<path d="M3483 1213 c15 -2 39 -2 55 0 15 2 2 4 -28 4 -30 0 -43 -2 -27 -4z"/>
</g>
</svg>
